<mxfile host="app.diagrams.net" modified="2023-06-16T03:54:05.776Z" agent="Mozilla/5.0 (X11; Linux x86_64; rv:109.0) Gecko/20100101 Firefox/114.0" version="21.4.0" etag="0wish87HS4s_drN4L5Wz" type="github">
  <diagram name="Page-1" id="BF2jnpEZx_Vj0Igo3YUG">
    <mxGraphModel>
      <root>
        <mxCell id="0" />
        <mxCell id="1" parent="0" />
      </root>
    </mxGraphModel>
  </diagram>
</mxfile>
